<mxfile host="app.diagrams.net" agent="Mozilla/5.0 (Windows NT 10.0; Win64; x64) AppleWebKit/537.36 (KHTML, like Gecko) Chrome/136.0.0.0 Safari/537.36" version="27.0.6">
  <diagram name="Página-1" id="vUDqokcMahpCM9yWsWyS">
    <mxGraphModel grid="1" page="1" gridSize="10" guides="1" tooltips="1" connect="1" arrows="1" fold="1" pageScale="1" pageWidth="827" pageHeight="1169" math="0" shadow="0">
      <root>
        <mxCell id="0" />
        <mxCell id="1" parent="0" />
        <mxCell id="77SrRc1TGKSff_I8X4Ur-1" value="Gestor" style="shape=umlLifeline;perimeter=lifelinePerimeter;whiteSpace=wrap;container=1;dropTarget=0;collapsible=0;recursiveResize=0;outlineConnect=0;portConstraint=eastwest;newEdgeStyle={&quot;edgeStyle&quot;:&quot;elbowEdgeStyle&quot;,&quot;elbow&quot;:&quot;vertical&quot;,&quot;curved&quot;:0,&quot;rounded&quot;:0};participant=umlActor;verticalAlign=bottom;labelPosition=center;verticalLabelPosition=top;align=center;size=65;" vertex="1" parent="1">
          <mxGeometry x="20" y="20" width="35" height="964" as="geometry" />
        </mxCell>
        <mxCell id="77SrRc1TGKSff_I8X4Ur-2" value="Interface de Relatórios" style="shape=umlLifeline;perimeter=lifelinePerimeter;whiteSpace=wrap;container=1;dropTarget=0;collapsible=0;recursiveResize=0;outlineConnect=0;portConstraint=eastwest;newEdgeStyle={&quot;edgeStyle&quot;:&quot;elbowEdgeStyle&quot;,&quot;elbow&quot;:&quot;vertical&quot;,&quot;curved&quot;:0,&quot;rounded&quot;:0};size=65;" vertex="1" parent="1">
          <mxGeometry x="418" y="20" width="178" height="964" as="geometry" />
        </mxCell>
        <mxCell id="77SrRc1TGKSff_I8X4Ur-3" value="Controlador de Relatórios" style="shape=umlLifeline;perimeter=lifelinePerimeter;whiteSpace=wrap;container=1;dropTarget=0;collapsible=0;recursiveResize=0;outlineConnect=0;portConstraint=eastwest;newEdgeStyle={&quot;edgeStyle&quot;:&quot;elbowEdgeStyle&quot;,&quot;elbow&quot;:&quot;vertical&quot;,&quot;curved&quot;:0,&quot;rounded&quot;:0};size=65;" vertex="1" parent="1">
          <mxGeometry x="861" y="20" width="202" height="964" as="geometry" />
        </mxCell>
        <mxCell id="77SrRc1TGKSff_I8X4Ur-4" value="Repositório de Viagens" style="shape=umlLifeline;perimeter=lifelinePerimeter;whiteSpace=wrap;container=1;dropTarget=0;collapsible=0;recursiveResize=0;outlineConnect=0;portConstraint=eastwest;newEdgeStyle={&quot;edgeStyle&quot;:&quot;elbowEdgeStyle&quot;,&quot;elbow&quot;:&quot;vertical&quot;,&quot;curved&quot;:0,&quot;rounded&quot;:0};size=65;" vertex="1" parent="1">
          <mxGeometry x="1328" y="20" width="183" height="964" as="geometry" />
        </mxCell>
        <mxCell id="77SrRc1TGKSff_I8X4Ur-5" value="Repositório de Veículos" style="shape=umlLifeline;perimeter=lifelinePerimeter;whiteSpace=wrap;container=1;dropTarget=0;collapsible=0;recursiveResize=0;outlineConnect=0;portConstraint=eastwest;newEdgeStyle={&quot;edgeStyle&quot;:&quot;elbowEdgeStyle&quot;,&quot;elbow&quot;:&quot;vertical&quot;,&quot;curved&quot;:0,&quot;rounded&quot;:0};size=65;" vertex="1" parent="1">
          <mxGeometry x="1561" y="20" width="185" height="964" as="geometry" />
        </mxCell>
        <mxCell id="77SrRc1TGKSff_I8X4Ur-6" value="Gerador de Relatórios" style="shape=umlLifeline;perimeter=lifelinePerimeter;whiteSpace=wrap;container=1;dropTarget=0;collapsible=0;recursiveResize=0;outlineConnect=0;portConstraint=eastwest;newEdgeStyle={&quot;edgeStyle&quot;:&quot;elbowEdgeStyle&quot;,&quot;elbow&quot;:&quot;vertical&quot;,&quot;curved&quot;:0,&quot;rounded&quot;:0};size=65;" vertex="1" parent="1">
          <mxGeometry x="1796" y="20" width="174" height="964" as="geometry" />
        </mxCell>
        <mxCell id="77SrRc1TGKSff_I8X4Ur-7" value="Exportador de Relatórios" style="shape=umlLifeline;perimeter=lifelinePerimeter;whiteSpace=wrap;container=1;dropTarget=0;collapsible=0;recursiveResize=0;outlineConnect=0;portConstraint=eastwest;newEdgeStyle={&quot;edgeStyle&quot;:&quot;elbowEdgeStyle&quot;,&quot;elbow&quot;:&quot;vertical&quot;,&quot;curved&quot;:0,&quot;rounded&quot;:0};size=65;" vertex="1" parent="1">
          <mxGeometry x="2020" y="20" width="194" height="964" as="geometry" />
        </mxCell>
        <mxCell id="77SrRc1TGKSff_I8X4Ur-8" value="Agendador de Relatórios" style="shape=umlLifeline;perimeter=lifelinePerimeter;whiteSpace=wrap;container=1;dropTarget=0;collapsible=0;recursiveResize=0;outlineConnect=0;portConstraint=eastwest;newEdgeStyle={&quot;edgeStyle&quot;:&quot;elbowEdgeStyle&quot;,&quot;elbow&quot;:&quot;vertical&quot;,&quot;curved&quot;:0,&quot;rounded&quot;:0};size=65;" vertex="1" parent="1">
          <mxGeometry x="2264" y="20" width="196" height="964" as="geometry" />
        </mxCell>
        <mxCell id="77SrRc1TGKSff_I8X4Ur-9" value="Sistema de Notificação" style="shape=umlLifeline;perimeter=lifelinePerimeter;whiteSpace=wrap;container=1;dropTarget=0;collapsible=0;recursiveResize=0;outlineConnect=0;portConstraint=eastwest;newEdgeStyle={&quot;edgeStyle&quot;:&quot;elbowEdgeStyle&quot;,&quot;elbow&quot;:&quot;vertical&quot;,&quot;curved&quot;:0,&quot;rounded&quot;:0};size=65;" vertex="1" parent="1">
          <mxGeometry x="2510" y="20" width="182" height="964" as="geometry" />
        </mxCell>
        <mxCell id="77SrRc1TGKSff_I8X4Ur-10" value="1. Acessa módulo de relatórios" style="verticalAlign=bottom;edgeStyle=elbowEdgeStyle;elbow=vertical;curved=0;rounded=0;endArrow=block;" edge="1" parent="1" source="77SrRc1TGKSff_I8X4Ur-1" target="77SrRc1TGKSff_I8X4Ur-2">
          <mxGeometry relative="1" as="geometry">
            <Array as="points">
              <mxPoint x="310" y="177" />
            </Array>
          </mxGeometry>
        </mxCell>
        <mxCell id="77SrRc1TGKSff_I8X4Ur-11" value="2. Exibe opções de relatórios" style="verticalAlign=bottom;edgeStyle=elbowEdgeStyle;elbow=vertical;curved=0;rounded=0;dashed=1;dashPattern=2 3;endArrow=block;" edge="1" parent="1" source="77SrRc1TGKSff_I8X4Ur-2" target="77SrRc1TGKSff_I8X4Ur-1">
          <mxGeometry relative="1" as="geometry">
            <Array as="points">
              <mxPoint x="313" y="231" />
            </Array>
          </mxGeometry>
        </mxCell>
        <mxCell id="77SrRc1TGKSff_I8X4Ur-12" value="3. Seleciona &quot;Relatório de Viagens por Período&quot;" style="verticalAlign=bottom;edgeStyle=elbowEdgeStyle;elbow=vertical;curved=0;rounded=0;endArrow=block;" edge="1" parent="1" source="77SrRc1TGKSff_I8X4Ur-1" target="77SrRc1TGKSff_I8X4Ur-2">
          <mxGeometry relative="1" as="geometry">
            <Array as="points">
              <mxPoint x="310" y="285" />
            </Array>
          </mxGeometry>
        </mxCell>
        <mxCell id="77SrRc1TGKSff_I8X4Ur-13" value="4. Solicita parâmetros (período, filtros opcionais)" style="verticalAlign=bottom;edgeStyle=elbowEdgeStyle;elbow=vertical;curved=0;rounded=0;dashed=1;dashPattern=2 3;endArrow=block;" edge="1" parent="1" source="77SrRc1TGKSff_I8X4Ur-2" target="77SrRc1TGKSff_I8X4Ur-1">
          <mxGeometry relative="1" as="geometry">
            <Array as="points">
              <mxPoint x="313" y="339" />
            </Array>
          </mxGeometry>
        </mxCell>
        <mxCell id="77SrRc1TGKSff_I8X4Ur-14" value="5. Informa período e filtros" style="verticalAlign=bottom;edgeStyle=elbowEdgeStyle;elbow=vertical;curved=0;rounded=0;endArrow=block;" edge="1" parent="1" source="77SrRc1TGKSff_I8X4Ur-1" target="77SrRc1TGKSff_I8X4Ur-2">
          <mxGeometry relative="1" as="geometry">
            <Array as="points">
              <mxPoint x="310" y="393" />
            </Array>
          </mxGeometry>
        </mxCell>
        <mxCell id="77SrRc1TGKSff_I8X4Ur-15" value="6. gerarRelatorioPorPeriodo(dataInicio, dataFim, filtros)" style="verticalAlign=bottom;edgeStyle=elbowEdgeStyle;elbow=vertical;curved=0;rounded=0;endArrow=block;" edge="1" parent="1" source="77SrRc1TGKSff_I8X4Ur-2" target="77SrRc1TGKSff_I8X4Ur-3">
          <mxGeometry relative="1" as="geometry">
            <Array as="points">
              <mxPoint x="743" y="447" />
            </Array>
          </mxGeometry>
        </mxCell>
        <mxCell id="77SrRc1TGKSff_I8X4Ur-16" value="7. buscarViagensPorPeriodo(dataInicio, dataFim, filtros)" style="verticalAlign=bottom;edgeStyle=elbowEdgeStyle;elbow=vertical;curved=0;rounded=0;endArrow=block;" edge="1" parent="1" source="77SrRc1TGKSff_I8X4Ur-3" target="77SrRc1TGKSff_I8X4Ur-4">
          <mxGeometry relative="1" as="geometry">
            <Array as="points">
              <mxPoint x="1199" y="501" />
            </Array>
          </mxGeometry>
        </mxCell>
        <mxCell id="77SrRc1TGKSff_I8X4Ur-17" value="8. listaViagens" style="verticalAlign=bottom;edgeStyle=elbowEdgeStyle;elbow=vertical;curved=0;rounded=0;dashed=1;dashPattern=2 3;endArrow=block;" edge="1" parent="1" source="77SrRc1TGKSff_I8X4Ur-4" target="77SrRc1TGKSff_I8X4Ur-3">
          <mxGeometry relative="1" as="geometry">
            <Array as="points">
              <mxPoint x="1202" y="555" />
            </Array>
          </mxGeometry>
        </mxCell>
        <mxCell id="77SrRc1TGKSff_I8X4Ur-18" value="9. processarDadosRelatorio(listaViagens, &quot;VIAGENS_PERIODO&quot;)" style="verticalAlign=bottom;edgeStyle=elbowEdgeStyle;elbow=vertical;curved=0;rounded=0;endArrow=block;" edge="1" parent="1" source="77SrRc1TGKSff_I8X4Ur-3" target="77SrRc1TGKSff_I8X4Ur-6">
          <mxGeometry relative="1" as="geometry">
            <Array as="points">
              <mxPoint x="1431" y="609" />
            </Array>
          </mxGeometry>
        </mxCell>
        <mxCell id="77SrRc1TGKSff_I8X4Ur-19" value="10. dadosProcessados" style="verticalAlign=bottom;edgeStyle=elbowEdgeStyle;elbow=vertical;curved=0;rounded=0;dashed=1;dashPattern=2 3;endArrow=block;" edge="1" parent="1" source="77SrRc1TGKSff_I8X4Ur-6" target="77SrRc1TGKSff_I8X4Ur-3">
          <mxGeometry relative="1" as="geometry">
            <Array as="points">
              <mxPoint x="1434" y="663" />
            </Array>
          </mxGeometry>
        </mxCell>
        <mxCell id="77SrRc1TGKSff_I8X4Ur-20" value="11. exibirPreviewRelatorio(dadosProcessados)" style="verticalAlign=bottom;edgeStyle=elbowEdgeStyle;elbow=vertical;curved=0;rounded=0;dashed=1;dashPattern=2 3;endArrow=block;" edge="1" parent="1" source="77SrRc1TGKSff_I8X4Ur-3" target="77SrRc1TGKSff_I8X4Ur-2">
          <mxGeometry relative="1" as="geometry">
            <Array as="points">
              <mxPoint x="746" y="717" />
            </Array>
          </mxGeometry>
        </mxCell>
        <mxCell id="77SrRc1TGKSff_I8X4Ur-21" value="12. Exibe prévia do relatório" style="verticalAlign=bottom;edgeStyle=elbowEdgeStyle;elbow=vertical;curved=0;rounded=0;dashed=1;dashPattern=2 3;endArrow=block;" edge="1" parent="1" source="77SrRc1TGKSff_I8X4Ur-2" target="77SrRc1TGKSff_I8X4Ur-1">
          <mxGeometry relative="1" as="geometry">
            <Array as="points">
              <mxPoint x="313" y="771" />
            </Array>
          </mxGeometry>
        </mxCell>
        <mxCell id="77SrRc1TGKSff_I8X4Ur-22" value="13. Solicita exportação do relatório" style="verticalAlign=bottom;edgeStyle=elbowEdgeStyle;elbow=vertical;curved=0;rounded=0;endArrow=block;" edge="1" parent="1" source="77SrRc1TGKSff_I8X4Ur-1" target="77SrRc1TGKSff_I8X4Ur-2">
          <mxGeometry relative="1" as="geometry">
            <Array as="points">
              <mxPoint x="310" y="825" />
            </Array>
          </mxGeometry>
        </mxCell>
        <mxCell id="77SrRc1TGKSff_I8X4Ur-23" value="14. Solic" style="verticalAlign=bottom;edgeStyle=elbowEdgeStyle;elbow=vertical;curved=0;rounded=0;dashed=1;dashPattern=2 3;endArrow=block;" edge="1" parent="1" source="77SrRc1TGKSff_I8X4Ur-2" target="77SrRc1TGKSff_I8X4Ur-1">
          <mxGeometry x="-0.0004" relative="1" as="geometry">
            <Array as="points">
              <mxPoint x="313" y="879" />
            </Array>
            <mxPoint as="offset" />
          </mxGeometry>
        </mxCell>
        <mxCell id="77SrRc1TGKSff_I8X4Ur-24" value="Cenário 1: Gerar Relatório de Viagens por Período" style="fillColor=#ffff88;strokeColor=#9E916F;" vertex="1" parent="1">
          <mxGeometry x="70" y="95" width="2556" height="48" as="geometry" />
        </mxCell>
      </root>
    </mxGraphModel>
  </diagram>
</mxfile>
